<svg width="27" height="35" viewBox="0 0 27 35" fill="none" xmlns="http://www.w3.org/2000/svg">
<path d="M13.0469 21.3875C18.9468 21.3875 23.7343 16.5874 23.7343 10.6875C23.7343 4.79996 18.9468 0 13.0469 0C7.1469 0 2.35938 4.79996 2.35938 10.6875C2.35938 16.5874 7.1469 21.3875 13.0469 21.3875ZM8.54689 8.9875C8.54689 7.2625 9.94688 5.8625 11.6719 5.8625H11.7969V5.06248C11.7969 4.375 12.3594 3.81248 13.0469 3.81248C13.7343 3.81248 14.2969 4.375 14.2969 5.06248V5.8625H14.5968C16.2218 5.8625 17.5468 7.1875 17.5468 8.81248C17.5468 9.51248 16.9844 10.0625 16.2968 10.0625C15.6093 10.0625 15.0468 9.51248 15.0468 8.81248C15.0468 8.56247 14.8469 8.3625 14.5968 8.3625H11.6719C11.3219 8.3625 11.0469 8.63747 11.0469 8.9875V12.4C11.0469 12.7375 11.3219 13.025 11.6719 13.025H14.5968C14.8469 13.025 15.0468 12.8125 15.0468 12.5625C15.0468 11.875 15.6093 11.3125 16.2968 11.3125C16.9844 11.3125 17.5468 11.875 17.5468 12.5625C17.5468 14.2 16.2218 15.525 14.5968 15.525H14.2969V16.3125C14.2969 17.0125 13.7343 17.5625 13.0469 17.5625C12.3594 17.5625 11.7969 17.0125 11.7969 16.3125V15.525H11.6719C9.94688 15.525 8.54689 14.125 8.54689 12.4V8.9875Z" fill="#13B4FB"/>
<path d="M15.4125 25.1974H14.3V24.5391C14.3 23.8488 13.7403 23.2891 13.05 23.2891C12.3597 23.2891 11.8 23.8488 11.8 24.5391V25.1974H10.6875C10 25.1974 9.4375 25.7474 9.4375 26.4474V31.8474C9.4375 32.5349 10 33.0974 10.6875 33.0974H11.8V33.7474C11.8 34.4377 12.3597 34.9974 13.05 34.9974C13.7403 34.9974 14.3 34.4377 14.3 33.7474V33.0974H15.4125C16.1 33.0974 16.6625 32.5349 16.6625 31.8474V26.4474C16.6625 25.7474 16.1 25.1974 15.4125 25.1974Z" fill="#13B4FB"/>
<path d="M5.96252 23.2902H4.85847V22.6406C4.85847 21.9503 4.29878 21.3906 3.60847 21.3906C2.91817 21.3906 2.35847 21.9503 2.35847 22.6406V23.2902H1.25C0.562515 23.2902 0 23.8526 0 24.5402V29.9402C0 30.6402 0.562515 31.1902 1.25 31.1902H2.35847V31.849C2.35847 32.5393 2.91817 33.099 3.60847 33.099C4.29878 33.099 4.85847 32.5393 4.85847 31.849V31.1902H5.96252C6.65001 31.1902 7.21252 30.6402 7.21252 29.9402V24.5402C7.21252 23.8526 6.65001 23.2902 5.96252 23.2902Z" fill="#13B4FB"/>
<path d="M24.8453 23.2902H23.7369V22.6406C23.7369 21.9503 23.1772 21.3906 22.4869 21.3906C21.7966 21.3906 21.2369 21.9503 21.2369 22.6406V23.2902H20.1328C19.4453 23.2902 18.8828 23.8526 18.8828 24.5402V29.9402C18.8828 30.6402 19.4453 31.1902 20.1328 31.1902H21.2369V31.849C21.2369 32.5393 21.7966 33.099 22.4869 33.099C23.1772 33.099 23.7369 32.5393 23.7369 31.849V31.1902H24.8453C25.5328 31.1902 26.0953 30.6402 26.0953 29.9402V24.5402C26.0953 23.8526 25.5328 23.2902 24.8453 23.2902Z" fill="#13B4FB"/>
</svg>
