<svg width="31" height="31" viewBox="0 0 31 31" fill="none" xmlns="http://www.w3.org/2000/svg">
<path d="M10.8205 0.0028459V0.00434828L10.816 8.11619C10.822 8.6767 11.2774 9.12904 11.8395 9.12904C11.9717 9.12904 12.0994 9.10349 12.2152 9.05841L15.0886 7.62027C15.2163 7.55566 15.3546 7.5241 15.4943 7.5241C15.6341 7.5241 15.7738 7.55716 15.9016 7.62027L18.7269 9.03587C18.8562 9.09597 19.0019 9.12904 19.1552 9.12904C19.6827 9.12904 20.117 8.72929 20.1711 8.21837L20.1786 0.00150164L10.8205 0.0028459ZM23.0924 19.0322C23.1375 19.0322 23.184 19.0352 23.2291 19.0412L23.408 19.0682L23.4651 19.0788L23.6439 19.1163L23.6995 19.1313L23.8753 19.1809L23.9309 19.199L24.1023 19.2591L24.1564 19.2801L24.3232 19.3523L24.3773 19.3763L24.5381 19.4589L24.5892 19.486L24.7455 19.5792L24.795 19.6107L24.9453 19.7129L24.9934 19.7475L25.1362 19.8587L25.1813 19.8962L25.3165 20.0165L25.3586 20.057L25.4863 20.1863L25.5254 20.2284L25.6411 20.3606L25.6757 20.4027L25.7824 20.5409L25.8155 20.5875L25.9116 20.7318L25.9417 20.7799L26.0304 20.9301L26.0574 20.9782L26.1356 21.1345L26.1596 21.1856L26.2287 21.3449L26.2498 21.3975L26.3084 21.5613L26.3264 21.6139L26.3745 21.7822L26.388 21.8363L26.4271 22.0061L26.4376 22.0617L26.4647 22.233L26.4722 22.2886L26.4887 22.4629L26.4932 22.5185L26.4992 22.6929C26.5173 23.1933 26.1265 23.6155 25.6246 23.6336H25.5915C25.1046 23.6336 24.7019 23.2489 24.6838 22.7575L24.6793 22.6117L24.6673 22.4945L24.6478 22.3773L24.6222 22.2631L24.5892 22.1504L24.5501 22.0392L24.502 21.9295L24.4494 21.8258L24.3893 21.7236L24.3232 21.6244L24.251 21.5312L24.1744 21.4426L24.0872 21.3554L23.9955 21.2728L23.8979 21.1976L23.7972 21.1285L23.6905 21.0654L23.5808 21.0098L23.4681 20.9617L23.3523 20.9211L23.2336 20.8866L23.1134 20.8625V20.861L22.9631 20.8385C22.4672 20.7663 22.123 20.3035 22.1967 19.8076C22.2643 19.3568 22.6506 19.0322 23.0924 19.0322ZM11.0321 19.1885C11.5326 19.1885 11.9368 19.5942 11.9368 20.0946V23.1122C11.9368 23.6141 11.5311 24.0198 11.0291 24.0198L5.0644 24.0213C4.82395 24.0213 4.594 23.9251 4.42418 23.7553C4.25286 23.5855 4.15818 23.3541 4.15818 23.1136V20.0931C4.15818 19.8527 4.25286 19.6227 4.42418 19.4514C4.5925 19.2831 4.82091 19.187 5.05986 19.187L11.0321 19.1885ZM11.0321 25.4864C11.5326 25.4864 11.9368 25.8922 11.9368 26.3911C11.9368 26.893 11.5296 27.2988 11.0291 27.2988H5.0644C4.56395 27.2988 4.15819 26.893 4.15819 26.3911C4.15819 25.8922 4.56245 25.4864 5.0614 25.4864H11.0321ZM22.8038 16.3063C21.1417 16.3063 19.4781 16.9434 18.2099 18.2117C15.6701 20.7514 15.6701 24.8705 18.2099 27.41C19.4798 28.6813 21.1449 29.3154 22.81 29.3154C24.1881 29.3154 25.5677 28.8797 26.7218 28.0096L29.3578 30.6439C29.5351 30.8212 29.768 30.9099 30.001 30.9099C30.2324 30.9099 30.4654 30.8212 30.6427 30.6439C30.9974 30.2893 30.9974 29.7137 30.6427 29.3591L28.0068 26.7262C29.9319 24.1761 29.732 20.5333 27.4101 18.2116C26.1402 16.9403 24.4736 16.3061 22.81 16.3061L22.8038 16.3063ZM21.9983 0.00294202L21.9908 8.16749C21.9592 9.7063 20.7013 10.9446 19.155 10.9446C18.7297 10.9446 18.3269 10.8514 17.9647 10.6846L15.4926 9.45086L13.0971 10.6501C12.7183 10.8379 12.29 10.9446 11.8392 10.9446C10.2808 10.9446 9.0109 9.68981 8.99589 8.13746L9.0004 0.00445761H2.82832C1.26539 0.00445761 0 1.27278 0 2.83714V28.1598C0 29.7272 1.26989 30.997 2.83582 30.997L17.3364 31C17.8383 31 18.2456 30.5928 18.2456 30.0908C18.2456 29.613 18.0246 29.4987 17.6655 29.1967L17.652 29.1862C17.431 29.0059 17.2176 28.8135 17.0117 28.6091C13.8092 25.4068 13.8032 20.2207 17.0057 17.02L17.0117 17.014C18.6123 15.4135 20.7132 14.6126 22.8095 14.6126C24.9044 14.6126 27.0022 15.4075 28.603 17.0095L28.6075 17.014C28.8119 17.2183 29.0073 17.4317 29.1861 17.6526L29.1966 17.6647C29.4837 18.0223 29.5888 18.2477 30.0908 18.2477C30.5927 18.2477 31 17.8405 31 17.3386L30.997 2.83718C30.997 1.26983 29.7316 0 28.1642 0L21.9983 0.00294202Z" fill="#13B4FB"/>
</svg>
