<svg width="32" height="32" viewBox="0 0 32 32" fill="none" xmlns="http://www.w3.org/2000/svg">
<g clip-path="url(#clip0_1_309)">
<path d="M21.9986 0C20.2926 0.117999 18.2987 1.20999 17.1367 2.63198C16.0767 3.92198 15.2047 5.83797 15.5447 7.69996C17.4087 7.75796 19.3347 6.63996 20.4506 5.19397C21.4946 3.84798 22.2846 1.94399 21.9986 0Z" fill="white"/>
<path d="M28.7402 10.7382C27.1022 8.68417 24.8002 7.49218 22.6262 7.49218C19.7562 7.49218 18.5423 8.86617 16.5483 8.86617C14.4923 8.86617 12.9303 7.49618 10.4483 7.49618C8.01031 7.49618 5.41433 8.98617 3.76834 11.5342C1.45435 15.1221 1.85035 21.8681 5.60033 27.6141C6.94232 29.6701 8.73431 31.982 11.0783 32.002C13.1643 32.022 13.7523 30.664 16.5783 30.6501C19.4043 30.6341 19.9402 32.02 22.0222 31.998C24.3682 31.98 26.2582 29.4181 27.6002 27.3621C28.5622 25.8881 28.9202 25.1461 29.6662 23.4821C24.2402 21.4161 23.3702 13.7001 28.7402 10.7382Z" fill="white"/>
</g>
<defs>
<clipPath id="clip0_1_309">
<rect width="31.3994" height="31.3994" fill="white" transform="scale(1.01913)"/>
</clipPath>
</defs>
</svg>
