<svg width="22" height="22" viewBox="0 0 22 22" fill="none" xmlns="http://www.w3.org/2000/svg">
<path fill-rule="evenodd" clip-rule="evenodd" d="M5.1231 4.20123C4.58594 4.7384 4.58594 5.6019 4.58594 7.33073V15.5807C4.58594 17.3096 4.58594 18.1731 5.1231 18.7102C5.66027 19.2474 6.52377 19.2474 8.2526 19.2474H13.7526C15.4814 19.2474 16.3449 19.2474 16.8821 18.7102C17.4193 18.1731 17.4193 17.3096 17.4193 15.5807V7.33073C17.4193 5.6019 17.4193 4.7384 16.8821 4.20123C16.3449 3.66406 15.4814 3.66406 13.7526 3.66406H8.2526C6.52377 3.66406 5.66027 3.66406 5.1231 4.20123ZM8.2526 7.33073C8.00949 7.33073 7.77633 7.42731 7.60442 7.59921C7.43251 7.77112 7.33594 8.00428 7.33594 8.2474C7.33594 8.49051 7.43251 8.72367 7.60442 8.89558C7.77633 9.06748 8.00949 9.16406 8.2526 9.16406H13.7526C13.9957 9.16406 14.2289 9.06748 14.4008 8.89558C14.5727 8.72367 14.6693 8.49051 14.6693 8.2474C14.6693 8.00428 14.5727 7.77112 14.4008 7.59921C14.2289 7.42731 13.9957 7.33073 13.7526 7.33073H8.2526ZM8.2526 10.9974C8.00949 10.9974 7.77633 11.094 7.60442 11.2659C7.43251 11.4378 7.33594 11.6709 7.33594 11.9141C7.33594 12.1572 7.43251 12.3903 7.60442 12.5622C7.77633 12.7342 8.00949 12.8307 8.2526 12.8307H13.7526C13.9957 12.8307 14.2289 12.7342 14.4008 12.5622C14.5727 12.3903 14.6693 12.1572 14.6693 11.9141C14.6693 11.6709 14.5727 11.4378 14.4008 11.2659C14.2289 11.094 13.9957 10.9974 13.7526 10.9974H8.2526ZM8.2526 14.6641C8.00949 14.6641 7.77633 14.7606 7.60442 14.9325C7.43251 15.1045 7.33594 15.3376 7.33594 15.5807C7.33594 15.8238 7.43251 16.057 7.60442 16.2289C7.77633 16.4008 8.00949 16.4974 8.2526 16.4974H11.9193C12.1624 16.4974 12.3955 16.4008 12.5675 16.2289C12.7394 16.057 12.8359 15.8238 12.8359 15.5807C12.8359 15.3376 12.7394 15.1045 12.5675 14.9325C12.3955 14.7606 12.1624 14.6641 11.9193 14.6641H8.2526Z" fill="#636363"/>
</svg>
