<svg width="18" height="13" viewBox="0 0 18 13" fill="none" xmlns="http://www.w3.org/2000/svg">
<path d="M8.999 0C9.03164 3.26016e-06 14.6355 0.000929538 16.0406 0.385117C16.8113 0.592687 17.4192 1.2006 17.6268 1.97136C18.0095 3.36916 17.9982 6.27196 17.998 6.31513C17.998 6.31513 17.9984 9.23653 17.6278 10.645C17.4201 11.4157 16.8115 12.0237 16.0406 12.2312C14.6322 12.6016 9.00562 12.6014 8.999 12.6014C8.999 12.6014 3.38127 12.6016 1.95743 12.2163C1.18647 12.0087 0.577851 11.4008 0.37019 10.63C0.002117 9.24597 1.7248e-05 6.3409 2.14542e-09 6.30119C2.14542e-09 6.30119 -0.000419838 3.37965 0.37019 1.97136C0.577713 1.20081 1.20072 0.578776 1.95644 0.371185C3.36486 0.00043794 8.999 0 8.999 0ZM7.20478 8.99502L11.8899 6.29622L7.20478 3.59841V8.99502Z" fill="white"/>
</svg>
