<svg width="18" height="18" viewBox="0 0 18 18" fill="none" xmlns="http://www.w3.org/2000/svg">
<path d="M17.9964 17.9944V17.9937H18.0009V11.3929C18.0009 8.16373 17.3057 5.67625 13.5306 5.67625C11.7158 5.67625 10.4979 6.67214 10.0007 7.61629H9.94824V5.97772H6.36886V17.9937H10.096V12.0438C10.096 10.4772 10.3929 8.9624 12.333 8.9624C14.2445 8.9624 14.273 10.7502 14.273 12.1443V17.9944H17.9964Z" fill="white"/>
<path d="M0.29456 5.97877H4.02616V17.9947H0.29456V5.97877Z" fill="white"/>
<path d="M2.16127 0C0.968146 0 0 0.968147 0 2.16127C0 3.35439 0.968146 4.34279 2.16127 4.34279C3.35439 4.34279 4.32254 3.35439 4.32254 2.16127C4.32179 0.968147 3.35364 0 2.16127 0V0Z" fill="white"/>
</svg>
