<svg width="22" height="22" viewBox="0 0 22 22" fill="none" xmlns="http://www.w3.org/2000/svg">
<path fill-rule="evenodd" clip-rule="evenodd" d="M5.5 2.75C4.77065 2.75 4.07118 3.03973 3.55546 3.55546C3.03973 4.07118 2.75 4.77065 2.75 5.5V16.5C2.75 17.2293 3.03973 17.9288 3.55546 18.4445C4.07118 18.9603 4.77065 19.25 5.5 19.25H16.5C17.2293 19.25 17.9288 18.9603 18.4445 18.4445C18.9603 17.9288 19.25 17.2293 19.25 16.5V5.5C19.25 4.77065 18.9603 4.07118 18.4445 3.55546C17.9288 3.03973 17.2293 2.75 16.5 2.75H5.5ZM9.16667 7.33333C9.16667 7.09022 9.26324 6.85706 9.43515 6.68515C9.60706 6.51324 9.84022 6.41667 10.0833 6.41667H15.5833C15.8264 6.41667 16.0596 6.51324 16.2315 6.68515C16.4034 6.85706 16.5 7.09022 16.5 7.33333C16.5 7.57645 16.4034 7.80961 16.2315 7.98151C16.0596 8.15342 15.8264 8.25 15.5833 8.25H10.0833C9.84022 8.25 9.60706 8.15342 9.43515 7.98151C9.26324 7.80961 9.16667 7.57645 9.16667 7.33333ZM9.16667 11C9.16667 10.7569 9.26324 10.5237 9.43515 10.3518C9.60706 10.1799 9.84022 10.0833 10.0833 10.0833H15.5833C15.8264 10.0833 16.0596 10.1799 16.2315 10.3518C16.4034 10.5237 16.5 10.7569 16.5 11C16.5 11.2431 16.4034 11.4763 16.2315 11.6482C16.0596 11.8201 15.8264 11.9167 15.5833 11.9167H10.0833C9.84022 11.9167 9.60706 11.8201 9.43515 11.6482C9.26324 11.4763 9.16667 11.2431 9.16667 11ZM9.16667 14.6667C9.16667 14.4236 9.26324 14.1904 9.43515 14.0185C9.60706 13.8466 9.84022 13.75 10.0833 13.75H15.5833C15.8264 13.75 16.0596 13.8466 16.2315 14.0185C16.4034 14.1904 16.5 14.4236 16.5 14.6667C16.5 14.9098 16.4034 15.1429 16.2315 15.3148C16.0596 15.4868 15.8264 15.5833 15.5833 15.5833H10.0833C9.84022 15.5833 9.60706 15.4868 9.43515 15.3148C9.26324 15.1429 9.16667 14.9098 9.16667 14.6667ZM6.41667 6.41667C6.17355 6.41667 5.94039 6.51324 5.76849 6.68515C5.59658 6.85706 5.5 7.09022 5.5 7.33333C5.5 7.57645 5.59658 7.80961 5.76849 7.98151C5.94039 8.15342 6.17355 8.25 6.41667 8.25C6.65978 8.25 6.89386 8.15342 7.06576 7.98151C7.23767 7.80961 7.33425 7.57645 7.33425 7.33333C7.33425 7.09022 7.23767 6.85706 7.06576 6.68515C6.89386 6.51324 6.65978 6.41667 6.41667 6.41667ZM5.5 11C5.5 10.7569 5.59658 10.5237 5.76849 10.3518C5.94039 10.1799 6.17355 10.0833 6.41667 10.0833C6.65978 10.0833 6.89386 10.1799 7.06576 10.3518C7.23767 10.5237 7.33425 10.7569 7.33425 11C7.33425 11.2431 7.23767 11.4763 7.06576 11.6482C6.89386 11.8201 6.6607 11.9167 6.41758 11.9167C6.17447 11.9167 5.94039 11.8201 5.76849 11.6482C5.59658 11.4763 5.5 11.2431 5.5 11ZM6.41667 13.75C6.17355 13.75 5.94039 13.8466 5.76849 14.0185C5.59658 14.1904 5.5 14.4236 5.5 14.6667C5.5 14.9098 5.59658 15.1429 5.76849 15.3148C5.94039 15.4868 6.17355 15.5833 6.41667 15.5833C6.65978 15.5833 6.89386 15.4868 7.06576 15.3148C7.23767 15.1429 7.33425 14.9098 7.33425 14.6667C7.33425 14.4236 7.23767 14.1904 7.06576 14.0185C6.89386 13.8466 6.65978 13.75 6.41667 13.75Z" fill="#636363"/>
</svg>
