<svg width="20" height="20" viewBox="0 0 20 20" fill="none" xmlns="http://www.w3.org/2000/svg">
<g clip-path="url(#clip0_893_13948)">
<path fill-rule="evenodd" clip-rule="evenodd" d="M9.58073 2.28906C5.55365 2.28906 2.28906 5.55365 2.28906 9.58073C2.28906 13.6078 5.55365 16.8724 9.58073 16.8724C13.6078 16.8724 16.8724 13.6078 16.8724 9.58073C16.8724 5.55365 13.6078 2.28906 9.58073 2.28906ZM1.03906 9.58073C1.03906 4.8633 4.8633 1.03906 9.58073 1.03906C14.2982 1.03906 18.1224 4.8633 18.1224 9.58073C18.1224 11.7145 17.34 13.6655 16.0465 15.1626L18.7727 17.8888C19.0167 18.1329 19.0167 18.5286 18.7727 18.7727C18.5286 19.0167 18.1329 19.0167 17.8888 18.7727L15.1626 16.0465C13.6655 17.34 11.7145 18.1224 9.58073 18.1224C4.8633 18.1224 1.03906 14.2982 1.03906 9.58073Z" fill="#A1A1AA" stroke="#A1A1AA" stroke-width="0.6" stroke-linecap="round"/>
</g>
<defs>
<clipPath id="clip0_893_13948">
<rect width="20" height="20" fill="white"/>
</clipPath>
</defs>
</svg>
