<svg width="25" height="25" viewBox="0 0 25 25" fill="none" xmlns="http://www.w3.org/2000/svg">
<path d="M24.8058 18.8835L23.6408 23.7864C23.4951 24.5146 22.9126 25 22.1845 25C9.95146 24.9515 0 15 0 2.76699C0 2.03883 0.436893 1.45631 1.16505 1.31068L6.06796 0.145631C6.74757 0 7.47573 0.38835 7.76699 1.01942L10.0485 6.31068C10.2913 6.94175 10.1456 7.6699 9.61165 8.05825L6.99029 10.1942C8.64078 13.5437 11.3592 16.2621 14.7573 17.9126L16.8932 15.2913C17.2816 14.8058 18.0097 14.6117 18.6408 14.8544L23.932 17.1359C24.5631 17.4757 24.9515 18.2039 24.8058 18.8835Z" fill="#0585DB"/>
</svg>
