<svg width="89" height="89" viewBox="0 0 89 89" fill="none" xmlns="http://www.w3.org/2000/svg">
<g clip-path="url(#clip0_626_7828)">
<path fill-rule="evenodd" clip-rule="evenodd" d="M12.0547 3.71094C12.0547 2.9733 11.7617 2.26588 11.2401 1.7443C10.7185 1.22271 10.0111 0.929688 9.27344 0.929688C8.5358 0.929688 7.82838 1.22271 7.3068 1.7443C6.78521 2.26588 6.49219 2.9733 6.49219 3.71094V17.2464C4.95694 17.2464 3.53665 17.7655 2.4909 18.8076C1.45256 19.8533 0.929688 21.2736 0.929688 22.8089V33.9339C0.929688 35.4691 1.44885 36.8894 2.4909 37.9314C3.53665 38.9772 4.95694 39.4964 6.49219 39.4964V48.7672C6.49219 49.5048 6.78521 50.2122 7.3068 50.7338C7.82838 51.2554 8.5358 51.5484 9.27344 51.5484C10.0111 51.5484 10.7185 51.2554 11.2401 50.7338C11.7617 50.2122 12.0547 49.5048 12.0547 48.7672V39.4964C13.5899 39.4964 15.0102 38.9772 16.056 37.9314C17.0943 36.8931 17.6172 35.4691 17.6172 33.9339V22.8089C17.6172 21.2736 17.098 19.8533 16.056 18.8076C15.0102 17.7655 13.5899 17.2464 12.0547 17.2464V3.71094ZM26.888 73.2422C25.3528 73.2422 23.9325 72.723 22.8867 71.681C22.3743 71.1508 21.9724 70.524 21.7043 69.8371C21.4363 69.1502 21.3076 68.4168 21.3255 67.6797V50.9922C21.3255 49.4569 21.8447 48.0366 22.8867 46.9909C23.9288 45.9451 25.3528 45.4297 26.888 45.4297V36.1589C26.888 35.4212 27.181 34.7138 27.7026 34.1922C28.2242 33.6706 28.9316 33.3776 29.6693 33.3776C30.4069 33.3776 31.1143 33.6706 31.6359 34.1922C32.1575 34.7138 32.4505 35.4212 32.4505 36.1589V45.4297C33.9858 45.4297 35.4061 45.9489 36.4518 46.9909C37.4939 48.0366 38.013 49.4569 38.013 50.9922V67.6797C38.013 69.2149 37.4939 70.6352 36.4518 71.681C35.4061 72.7193 33.9858 73.2422 32.4505 73.2422V85.2943C32.4505 86.0319 32.1575 86.7393 31.6359 87.2609C31.1143 87.7825 30.4069 88.0755 29.6693 88.0755C28.9316 88.0755 28.2242 87.7825 27.7026 87.2609C27.181 86.7393 26.888 86.0319 26.888 85.2943V73.2422ZM48.1071 43.6534C49.1454 42.6151 50.5694 42.0922 52.1047 42.0922H57.6672C59.2024 42.0922 60.6227 42.6114 61.6685 43.6534C62.7105 44.6991 63.2297 46.1194 63.2297 47.6547V62.488C63.2297 64.0233 62.7105 65.4436 61.6685 66.4893C60.6227 67.5276 59.2024 68.0505 57.6672 68.0505V81.0297C57.6672 81.7673 57.3742 82.4747 56.8526 82.9963C56.331 83.5179 55.6236 83.8109 54.8859 83.8109C54.1483 83.8109 53.4409 83.5179 52.9193 82.9963C52.3977 82.4747 52.1047 81.7673 52.1047 81.0297V68.0505C50.5694 68.0505 49.1491 67.5314 48.1034 66.4893C47.591 65.9591 47.189 65.3324 46.921 64.6454C46.653 63.9585 46.5242 63.2252 46.5422 62.488V47.6547C46.5422 46.1194 47.0614 44.6991 48.1034 43.6534M77.2286 10.2747C76.9676 9.96168 76.641 9.70987 76.2719 9.53706C75.9028 9.36426 75.5002 9.27469 75.0926 9.27469C74.6851 9.27469 74.2825 9.36426 73.9134 9.53706C73.5443 9.70987 73.2177 9.96168 72.9566 10.2747L61.8316 23.6247C61.4934 24.0308 61.2779 24.5248 61.2103 25.0489C61.1427 25.5731 61.2258 26.1056 61.4499 26.5842C61.6741 27.0628 62.0299 27.4676 62.4758 27.7513C62.9217 28.035 63.4392 28.1857 63.9676 28.1859H71.3843V69.9047C71.3843 70.8882 71.775 71.8314 72.4705 72.5269C73.1659 73.2223 74.1091 73.613 75.0926 73.613C76.0762 73.613 77.0194 73.2223 77.7148 72.5269C78.4103 71.8314 78.801 70.8882 78.801 69.9047V28.1859H86.2176C86.7461 28.1857 87.2636 28.035 87.7095 27.7513C88.1554 27.4676 88.5112 27.0628 88.7354 26.5842C88.9595 26.1056 89.0426 25.5731 88.975 25.0489C88.9074 24.5248 88.6919 24.0308 88.3536 23.6247L77.2286 10.2747Z" fill="white"/>
</g>
<defs>
<clipPath id="clip0_626_7828">
<rect width="89" height="89" fill="white"/>
</clipPath>
</defs>
</svg>
