<svg width="36" height="36" viewBox="0 0 36 36" fill="none" xmlns="http://www.w3.org/2000/svg">
<path d="M16.103 6.74798H21.7329L27.907 0.555104C28.0814 0.37921 28.289 0.2396 28.5177 0.144326C28.7463 0.0490518 28.9916 0 29.2394 0C29.4871 0 29.7324 0.0490518 29.9611 0.144326C30.1898 0.2396 30.3973 0.37921 30.5718 0.555104L35.4135 5.41557C35.763 5.76718 35.9592 6.24282 35.9592 6.7386C35.9592 7.23437 35.763 7.71001 35.4135 8.06162L31.116 12.3779H16.103V16.1311C16.103 16.6288 15.9052 17.1062 15.5533 17.4581C15.2014 17.81 14.724 18.0078 14.2263 18.0078C13.7286 18.0078 13.2513 17.81 12.8994 17.4581C12.5474 17.1062 12.3497 16.6288 12.3497 16.1311V10.5012C12.3497 9.50581 12.7451 8.55115 13.449 7.84728C14.1529 7.14341 15.1075 6.74798 16.103 6.74798ZM4.84319 16.1311V23.6376L0.54571 27.9351C0.196186 28.2867 0 28.7624 0 29.2581C0 29.7539 0.196186 30.2296 0.54571 30.5812L5.38741 35.4416C5.56187 35.6175 5.76943 35.7571 5.99811 35.8524C6.2268 35.9477 6.47208 35.9967 6.71982 35.9967C6.96756 35.9967 7.21284 35.9477 7.44153 35.8524C7.67021 35.7571 7.87777 35.6175 8.05223 35.4416L16.103 27.3909H23.6095C24.1072 27.3909 24.5845 27.1932 24.9365 26.8412C25.2884 26.4893 25.4861 26.012 25.4861 25.5143V23.6376H27.3627C27.8605 23.6376 28.3378 23.4399 28.6897 23.088C29.0417 22.7361 29.2394 22.2587 29.2394 21.761V19.8844H31.116C31.6137 19.8844 32.091 19.6867 32.443 19.3347C32.7949 18.9828 32.9926 18.5055 32.9926 18.0078V16.1311H19.8562V18.0078C19.8562 19.0032 19.4608 19.9578 18.7569 20.6617C18.053 21.3656 17.0984 21.761 16.103 21.761H12.3497C11.3543 21.761 10.3996 21.3656 9.69575 20.6617C8.99188 19.9578 8.59645 19.0032 8.59645 18.0078V12.3779L4.84319 16.1311Z" fill="#13B4FB"/>
</svg>
