<svg width="46" height="46" viewBox="0 0 46 46" fill="none" xmlns="http://www.w3.org/2000/svg">
<rect width="45.1332" height="45.1366" transform="scale(1.01921)" fill="#363B47" fill-opacity="0.4"/>
<path d="M31.9505 19.2908C31.9084 18.3343 31.7537 17.6767 31.5321 17.1069C31.3035 16.5021 30.9519 15.9606 30.4912 15.5104C30.041 15.0533 29.4959 14.698 28.8981 14.473C28.325 14.2514 27.6709 14.0968 26.7144 14.0546C25.7507 14.0088 25.4448 13.9983 23.0008 13.9983C20.5567 13.9983 20.2508 14.0088 19.2908 14.051C18.3343 14.0932 17.6767 14.248 17.107 14.4694C16.5021 14.698 15.9606 15.0497 15.5104 15.5104C15.0533 15.9606 14.6982 16.5056 14.473 17.1035C14.2514 17.6767 14.0968 18.3307 14.0546 19.2872C14.0088 20.2508 13.9983 20.5567 13.9983 23.0008C13.9983 25.4448 14.0088 25.7508 14.051 26.7108C14.0932 27.6673 14.248 28.3249 14.4696 28.8947C14.6982 29.4995 15.0533 30.041 15.5104 30.4912C15.9606 30.9483 16.5056 31.3036 17.1035 31.5286C17.6767 31.7502 18.3307 31.9048 19.2873 31.947C20.2473 31.9893 20.5533 31.9998 22.9973 31.9998C25.4414 31.9998 25.7473 31.9893 26.7074 31.947C27.6639 31.9048 28.3214 31.7502 28.8911 31.5286C30.1009 31.0608 31.0574 30.1044 31.5251 28.8947C31.7466 28.3215 31.9014 27.6673 31.9435 26.7108C31.9857 25.7508 31.9963 25.4448 31.9963 23.0008C31.9963 20.5567 31.9927 20.2508 31.9505 19.2908ZM30.3295 26.6405C30.2907 27.5196 30.1431 27.9944 30.02 28.3109C29.7175 29.0951 29.0951 29.7175 28.3109 30.02C27.9944 30.1431 27.5162 30.2908 26.6405 30.3294C25.691 30.3717 25.4062 30.3821 23.0044 30.3821C20.6025 30.3821 20.3141 30.3717 19.3681 30.3294C18.4889 30.2908 18.0142 30.1431 17.6977 30.02C17.3075 29.8758 16.9522 29.6472 16.6639 29.3483C16.365 29.0564 16.1364 28.7047 15.9922 28.3145C15.8691 27.998 15.7214 27.5196 15.6828 26.6441C15.6405 25.6946 15.6301 25.4097 15.6301 23.0078C15.6301 20.6059 15.6405 20.3176 15.6828 19.3717C15.7214 18.4925 15.8691 18.0178 15.9922 17.7013C16.1364 17.3109 16.365 16.9558 16.6675 16.6673C16.9592 16.3684 17.3109 16.1398 17.7013 15.9957C18.0178 15.8727 18.4961 15.725 19.3717 15.6862C20.3212 15.6441 20.6061 15.6335 23.0078 15.6335C25.4132 15.6335 25.698 15.6441 26.644 15.6862C27.5232 15.725 27.9979 15.8727 28.3144 15.9957C28.7047 16.1398 29.0599 16.3684 29.3483 16.6673C29.6472 16.9592 29.8757 17.3109 30.02 17.7013C30.1431 18.0178 30.2907 18.496 30.3295 19.3717C30.3716 20.3212 30.3822 20.6059 30.3822 23.0078C30.3822 25.4097 30.3716 25.691 30.3295 26.6405Z" fill="white"/>
<path d="M23.002 18.3777C20.4491 18.3777 18.3777 20.4489 18.3777 23.002C18.3777 25.5552 20.4491 27.6264 23.002 27.6264C25.5552 27.6264 27.6264 25.5552 27.6264 23.002C27.6264 20.4489 25.5552 18.3777 23.002 18.3777ZM23.002 26.0017C21.3458 26.0017 20.0024 24.6584 20.0024 23.002C20.0024 21.3457 21.3458 20.0024 23.002 20.0024C24.6584 20.0024 26.0017 21.3457 26.0017 23.002C26.0017 24.6584 24.6584 26.0017 23.002 26.0017Z" fill="white"/>
<path d="M28.8898 18.1912C28.8898 18.7874 28.4064 19.2708 27.8101 19.2708C27.2139 19.2708 26.7305 18.7874 26.7305 18.1912C26.7305 17.5949 27.2139 17.1116 27.8101 17.1116C28.4064 17.1116 28.8898 17.5949 28.8898 18.1912Z" fill="white"/>
</svg>
