<svg width="45" height="45" viewBox="0 0 45 45" fill="none" xmlns="http://www.w3.org/2000/svg">
<path d="M5.62373 22.5022C5.62662 24.9152 6.14698 27.2995 7.1497 29.4943C8.15243 31.6892 9.61419 33.6434 11.4364 35.2252C13.2586 36.8071 15.3989 37.9797 17.7128 38.6641C20.0267 39.3484 22.4605 39.5286 24.85 39.1924C27.2395 38.8561 29.5291 38.0114 31.5643 36.7151C33.5996 35.4187 35.3331 33.701 36.6481 31.6777C37.963 29.6545 38.8287 27.3727 39.1868 24.9864C39.545 22.6001 39.3871 20.1648 38.724 17.8447C38.6309 17.5736 38.594 17.2865 38.6154 17.0007C38.6368 16.7149 38.7162 16.4364 38.8487 16.1823C38.9812 15.9281 39.164 15.7036 39.386 15.5223C39.608 15.3411 39.8646 15.2069 40.1401 15.128C40.4157 15.0491 40.7044 15.0271 40.9887 15.0633C41.273 15.0995 41.5469 15.1933 41.7939 15.3387C42.0408 15.4842 42.2555 15.6784 42.425 15.9096C42.5945 16.1407 42.7152 16.4039 42.7797 16.6831C44.0636 21.1762 43.8198 25.9683 42.0863 30.3078C40.3528 34.6473 37.2277 38.2885 33.2015 40.6603C29.1752 43.032 24.4755 44.0001 19.8397 43.4126C15.2038 42.825 10.8942 40.7152 7.58686 37.4141C4.28313 34.1076 2.17104 29.7975 1.58218 25.1606C0.993322 20.5237 1.96105 15.8225 4.33342 11.7952C6.70579 7.76787 10.3485 4.64242 14.6895 2.90958C19.0306 1.17674 23.8242 0.934621 28.3178 2.22125C28.8528 2.37765 29.3042 2.7395 29.5733 3.22771C29.8424 3.71591 29.9073 4.29078 29.7538 4.82668C29.6003 5.36258 29.2409 5.81594 28.7542 6.08767C28.2675 6.35941 27.693 6.42743 27.1562 6.27687C24.6435 5.55532 21.9974 5.42746 19.4268 5.90337C16.8562 6.37929 14.4312 7.44596 12.3433 9.01925C10.2554 10.5926 8.56161 12.6294 7.39549 14.9693C6.22937 17.3091 5.62284 19.8879 5.62373 22.5022Z" fill="#13B4FB"/>
<path d="M14.0638 22.4993C14.064 24.0366 14.4839 25.5446 15.2782 26.8608C16.0725 28.177 17.211 29.2513 18.5711 29.968C19.9311 30.6846 21.461 31.0163 22.9957 30.9273C24.5304 30.8383 26.0117 30.332 27.2798 29.463C28.5476 28.5918 29.5532 27.3906 30.1877 25.9892C30.8222 24.5878 31.0615 23.0396 30.8798 21.5121C30.8306 21.1414 30.8812 20.7643 31.0262 20.4196C31.1712 20.075 31.4054 19.7752 31.7048 19.5512C32.0042 19.3271 32.3579 19.1869 32.7295 19.145C33.101 19.1031 33.4771 19.161 33.8188 19.3127C34.1605 19.4625 34.4564 19.7001 34.6763 20.0015C34.8961 20.3029 35.0321 20.6572 35.0704 21.0283C35.376 23.6386 34.8614 26.2793 33.5981 28.5838C32.3348 30.8884 30.3854 32.7425 28.0204 33.8888C25.6555 35.0352 22.9924 35.4169 20.4007 34.9809C17.809 34.545 15.4173 33.3131 13.5575 31.4561C11.6977 29.5992 10.4622 27.2093 10.0223 24.6183C9.58242 22.0273 9.96006 19.3636 11.1028 16.9969C12.2455 14.6302 14.0967 12.678 16.3993 11.4112C18.702 10.1443 21.3419 9.62576 23.9526 9.9274C24.2321 9.95333 24.5037 10.0348 24.7514 10.1671C24.999 10.2993 25.2178 10.4797 25.3948 10.6976C25.5718 10.9155 25.7036 11.1665 25.7824 11.436C25.8611 11.7054 25.8853 11.9879 25.8535 12.2669C25.8217 12.5458 25.7345 12.8156 25.597 13.0604C25.4596 13.3052 25.2747 13.5201 25.0531 13.6925C24.8315 13.8649 24.5778 13.9914 24.3067 14.0644C24.0356 14.1375 23.7527 14.1557 23.4745 14.118C22.2923 13.9808 21.0944 14.0952 19.9595 14.4537C18.8246 14.8122 17.7785 15.4068 16.8897 16.1984C16.0009 16.9899 15.2897 17.9605 14.8026 19.0465C14.3156 20.1324 14.0638 21.3091 14.0638 22.4993Z" fill="#13B4FB"/>
<path d="M39.0025 6.27847L43.7162 7.22066C43.9694 7.27129 44.1775 7.45691 44.2506 7.70722C44.2876 7.82882 44.2908 7.95815 44.2601 8.08146C44.2294 8.20477 44.1659 8.31746 44.0763 8.40754L40.2147 12.2719C39.752 12.732 39.1263 12.9908 38.4738 12.9919H35.2703L27.2266 21.0385C27.38 21.6179 27.4082 22.2234 27.3093 22.8146C27.2105 23.4058 26.9867 23.9691 26.653 24.4671C26.3193 24.965 25.8834 25.3861 25.3742 25.7024C24.865 26.0186 24.2942 26.2227 23.6999 26.3011C23.1057 26.3795 22.5015 26.3303 21.9278 26.1568C21.354 25.9834 20.8238 25.6897 20.3724 25.2953C19.921 24.9008 19.5589 24.4148 19.3101 23.8694C19.0614 23.3241 18.9317 22.7319 18.9297 22.1325C18.9296 21.4852 19.0784 20.8465 19.3647 20.2658C19.651 19.6852 20.0671 19.1783 20.5808 18.7843C21.0944 18.3903 21.6919 18.1197 22.3268 17.9937C22.9618 17.8676 23.6173 17.8893 24.2425 18.0572L32.2891 10.0078V6.81004C32.2891 6.15754 32.5478 5.53035 33.0091 5.0691L36.8734 1.20472C36.9635 1.11509 37.0762 1.05154 37.1995 1.02083C37.3228 0.990128 37.4522 0.993417 37.5737 1.03035C37.8241 1.10347 38.0097 1.3116 38.0603 1.56472L39.0025 6.27847Z" fill="#13B4FB"/>
</svg>
