<svg width="28" height="28" viewBox="0 0 28 28" fill="none" xmlns="http://www.w3.org/2000/svg">
<path d="M17.501 21V21.875C17.501 22.8033 17.1323 23.6935 16.4759 24.3499C15.8195 25.0063 14.9293 25.375 14.001 25.375C13.0727 25.375 12.1825 25.0063 11.5261 24.3499C10.8698 23.6935 10.501 22.8033 10.501 21.875V21M23.3898 19.2188C21.9854 17.5 20.9939 16.625 20.9939 11.8863C20.9939 7.54688 18.778 6.00086 16.9541 5.25C16.7119 5.15047 16.4838 4.92187 16.41 4.67305C16.0901 3.58422 15.1932 2.625 14.001 2.625C12.8088 2.625 11.9114 3.58477 11.5948 4.67414C11.5209 4.9257 11.2929 5.15047 11.0506 5.25C9.2246 6.00195 7.01085 7.5425 7.01085 11.8863C7.00811 16.625 6.01663 17.5 4.61225 19.2188C4.03038 19.9309 4.54007 21 5.5578 21H22.4497C23.4619 21 23.9683 19.9276 23.3898 19.2188Z" stroke="black" stroke-width="2" stroke-linecap="round" stroke-linejoin="round"/>
</svg>
