<svg width="15" height="13" viewBox="0 0 15 13" fill="none" xmlns="http://www.w3.org/2000/svg">
<path d="M14.5676 7.25055L9.24611 12.5721C9.04655 12.7716 8.78048 12.8714 8.5144 12.8714C8.21507 12.8714 7.94899 12.7716 7.74944 12.5721C7.31706 12.1729 7.31706 11.4745 7.74944 11.0754L11.2417 7.54989H1.06429C0.465622 7.54989 -1.015e-05 7.08426 -1.015e-05 6.48559C-1.015e-05 5.92018 0.465622 5.42129 1.06429 5.42129H11.2417L7.74944 1.92905C7.31706 1.52993 7.31706 0.831486 7.74944 0.432373C8.14855 0 8.847 0 9.24611 0.432373L14.5676 5.75388C15 6.15299 15 6.85144 14.5676 7.25055Z" fill="white"/>
</svg>
