<svg width="45" height="45" viewBox="0 0 45 45" fill="none" xmlns="http://www.w3.org/2000/svg">
<path d="M10.7812 1.875C11.1542 1.875 11.5119 2.02316 11.7756 2.28688C12.0393 2.5506 12.1875 2.90829 12.1875 3.28125V6.75L15.4125 6.105C18.5078 5.48822 21.7156 5.78261 24.6469 6.9525L25.0294 7.10437C27.9561 8.27529 31.1773 8.49441 34.2356 7.73063C34.5673 7.64772 34.9135 7.64149 35.248 7.71241C35.5824 7.78333 35.8963 7.92954 36.1658 8.13992C36.4353 8.35031 36.6533 8.61935 36.8033 8.9266C36.9532 9.23385 37.0312 9.57123 37.0312 9.91313V23.7262C37.0312 24.9338 36.2081 25.9875 35.0363 26.28L34.635 26.3794C31.3172 27.2088 27.8224 26.9719 24.6469 25.7025C21.7161 24.533 18.5091 24.2386 15.4144 24.855L12.1875 25.5V40.7812C12.1875 41.1542 12.0393 41.5119 11.7756 41.7756C11.5119 42.0393 11.1542 42.1875 10.7812 42.1875C10.4083 42.1875 10.0506 42.0393 9.78688 41.7756C9.52316 41.5119 9.375 41.1542 9.375 40.7812V3.28125C9.375 2.90829 9.52316 2.5506 9.78688 2.28688C10.0506 2.02316 10.4083 1.875 10.7812 1.875Z" fill="#13B4FB"/>
</svg>
