<svg width="22" height="22" viewBox="0 0 22 22" fill="none" xmlns="http://www.w3.org/2000/svg">
<g clip-path="url(#clip0_840_14811)">
<path d="M11.0026 9.99427C10.4434 9.99427 9.99427 10.4434 9.99427 11.0026C9.99427 11.5618 10.4434 12.0109 11.0026 12.0109C11.5618 12.0109 12.0109 11.5618 12.0109 11.0026C12.0109 10.4434 11.5618 9.99427 11.0026 9.99427ZM11.0026 1.83594C5.9426 1.83594 1.83594 5.9426 1.83594 11.0026C1.83594 16.0626 5.9426 20.1693 11.0026 20.1693C16.0626 20.1693 20.1693 16.0626 20.1693 11.0026C20.1693 5.9426 16.0626 1.83594 11.0026 1.83594ZM13.0101 13.0101L5.5026 16.5026L8.9951 8.9951L16.5026 5.5026L13.0101 13.0101Z" fill="#0585DB"/>
</g>
<defs>
<clipPath id="clip0_840_14811">
<rect width="22" height="22" fill="white"/>
</clipPath>
</defs>
</svg>
