<svg width="89" height="89" viewBox="0 0 89 89" fill="none" xmlns="http://www.w3.org/2000/svg">
<path d="M14.8307 74.1693C12.7911 74.1693 11.0458 73.4437 9.59456 71.9925C8.14337 70.5413 7.41653 68.7947 7.41406 66.7526V22.2526C7.41406 20.213 8.1409 18.4676 9.59456 17.0164C11.0482 15.5652 12.7936 14.8384 14.8307 14.8359H74.1641C76.2036 14.8359 77.9503 15.5628 79.4039 17.0164C80.8576 18.4701 81.5832 20.2155 81.5807 22.2526V44.688C80.6536 43.2047 79.556 41.7992 78.2877 40.4716C77.0195 39.1441 75.6449 37.9846 74.1641 36.9932V22.2526H48.2057V36.9932C44.8682 39.1564 42.1797 42.0464 40.1401 45.6633C38.1005 49.2802 37.0807 53.2197 37.0807 57.4818C37.0807 60.7575 37.684 63.8168 38.8904 66.6599C40.0968 69.503 41.7495 72.0061 43.8484 74.1693H14.8307ZM80.0974 81.5859L70.0849 71.5734C68.7252 72.3769 67.3036 73.011 65.8203 73.4758C64.337 73.9406 62.7918 74.1717 61.1849 74.1693C56.5495 74.1693 52.61 72.5475 49.3664 69.3039C46.1229 66.0604 44.4999 62.1197 44.4974 57.4818C44.4949 52.8439 46.1179 48.9044 49.3664 45.6633C52.6149 42.4222 56.5544 40.7992 61.1849 40.7943C65.8154 40.7893 69.7561 42.4123 73.0071 45.6633C76.258 48.9143 77.8798 52.8538 77.8724 57.4818C77.8724 59.0887 77.6412 60.6339 77.1789 62.1172C76.7166 63.6005 76.0825 65.022 75.2766 66.3818L85.2891 76.3943L80.0974 81.5859ZM61.1849 66.7526C63.7807 66.7526 65.9748 65.8564 67.7672 64.0641C69.5595 62.2717 70.4557 60.0776 70.4557 57.4818C70.4557 54.8859 69.5595 52.6918 67.7672 50.8995C65.9748 49.1071 63.7807 48.2109 61.1849 48.2109C58.5891 48.2109 56.395 49.1071 54.6026 50.8995C52.8102 52.6918 51.9141 54.8859 51.9141 57.4818C51.9141 60.0776 52.8102 62.2717 54.6026 64.0641C56.395 65.8564 58.5891 66.7526 61.1849 66.7526Z" fill="white"/>
</svg>
