<svg width="19" height="19" viewBox="0 0 19 19" fill="none" xmlns="http://www.w3.org/2000/svg">
<g clip-path="url(#clip0_0_12)">
<path d="M1.70721 11.2089H0.556698C0.248992 11.2089 0 11.4579 0 11.7656V18.4459C0 18.7536 0.248992 19.0026 0.556698 19.0026H1.70721C2.62813 19.0026 3.3773 18.2535 3.3773 17.3325V12.879C3.3773 11.958 2.62813 11.2089 1.70721 11.2089Z" fill="#848484"/>
<path d="M12.8781 0C9.50452 0 6.75448 2.75005 6.75448 6.12367C6.75448 7.59335 7.27773 8.94052 8.14622 9.99825C8.84766 10.1987 9.50452 10.5549 10.0612 11.0449C10.1659 11.1234 10.225 11.1225 10.3396 11.134H12.3215C13.0897 11.134 13.7689 11.5125 14.1586 12.1137C16.9198 11.5236 19.0018 9.06304 19.0018 6.12367C19.0018 2.75005 16.2518 0 12.8781 0ZM13.446 8.80692H13.4348V9.46386C13.4348 9.77557 13.1899 10.0206 12.8781 10.0206C12.5664 10.0206 12.3215 9.77557 12.3215 9.46386V8.80692C11.954 8.68444 11.6089 8.45063 11.3083 8.08325C11.1079 7.8494 11.1413 7.50425 11.3751 7.30387C11.6089 7.10346 11.9652 7.13686 12.1544 7.37068C12.4551 7.72696 12.7891 7.86057 13.0674 7.76033C13.2901 7.68239 13.4348 7.47084 13.4348 7.23707C13.4348 6.92528 13.1899 6.68037 12.8781 6.68037C11.954 6.68037 11.2081 5.93436 11.2081 5.01028C11.2081 4.3422 11.6089 3.72984 12.2324 3.47379C12.2547 3.46266 12.288 3.46266 12.3215 3.45149V2.78349C12.3215 2.4717 12.5664 2.22679 12.8781 2.22679C13.1899 2.22679 13.4348 2.4717 13.4348 2.78349V3.45149C13.7243 3.55173 14.0027 3.69647 14.2588 3.94138C14.4814 4.15293 14.4814 4.50921 14.2699 4.73193C14.0583 4.95465 13.7021 4.95461 13.4793 4.74306C13.2121 4.48695 12.9116 4.38678 12.6666 4.49808C12.4551 4.58719 12.3215 4.7876 12.3215 5.01028C12.3215 5.32199 12.5664 5.56698 12.8781 5.56698C13.8023 5.56698 14.5482 6.31295 14.5482 7.23707C14.5482 7.93851 14.1028 8.56201 13.446 8.80692Z" fill="#848484"/>
<path d="M18.831 12.2918C18.7642 12.1805 18.6752 12.0914 18.5749 12.0135C18.165 11.6548 17.4744 11.6888 17.0719 12.1248L14.5445 15.0419L14.4665 15.1309C14.1548 15.4761 13.7094 15.6654 13.2418 15.6654H8.8847C8.57291 15.6654 8.328 15.4204 8.328 15.1087C8.328 14.7969 8.57291 14.552 8.8847 14.552H12.3177C12.93 14.552 13.4311 14.051 13.4311 13.4386V13.4275C13.4199 12.8151 12.93 12.3252 12.3177 12.3252H10.2653C9.93144 12.3252 9.57363 12.2026 9.28552 11.9578C7.92721 10.7665 5.94533 10.6885 4.48679 11.7017V18.5491C5.58905 18.8497 6.72471 19.0056 7.87147 19.0056H12.8744C14.0991 19.0056 15.257 18.4266 15.9919 17.4468L18.6641 13.884C19.0539 13.3722 19.0833 12.6704 18.831 12.2918Z" fill="#848484"/>
</g>
<defs>
<clipPath id="clip0_0_12">
<rect width="18.33" height="18.33" fill="white" transform="scale(1.03666)"/>
</clipPath>
</defs>
</svg>
