<svg width="9" height="6" viewBox="0 0 9 6" fill="none" xmlns="http://www.w3.org/2000/svg">
<path fill-rule="evenodd" clip-rule="evenodd" d="M4.98624 4.98624C4.85947 5.11296 4.68756 5.18416 4.50832 5.18416C4.32907 5.18416 4.15716 5.11296 4.0304 4.98624L0.206369 1.16221C0.141806 1.09985 0.0903084 1.02526 0.0548809 0.942787C0.0194533 0.860315 0.000805482 0.771612 2.55226e-05 0.681856C-0.000754436 0.592099 0.0163492 0.503087 0.0503382 0.420011C0.0843272 0.336935 0.134521 0.26146 0.197991 0.19799C0.26146 0.134521 0.336935 0.0843269 0.420011 0.0503379C0.503086 0.0163489 0.5921 -0.000754436 0.681856 2.55231e-05C0.771612 0.000805482 0.860315 0.0194533 0.942787 0.0548809C1.02526 0.0903084 1.09985 0.141806 1.16221 0.206369L4.50832 3.55248L7.85443 0.206369C7.98192 0.0832336 8.15268 0.0150984 8.32992 0.0166386C8.50716 0.0181788 8.6767 0.0892709 8.80203 0.214603C8.92737 0.339936 8.99846 0.509481 9 0.686721C9.00154 0.863961 8.9334 1.03472 8.81027 1.16221L4.98624 4.98624Z" fill="#041E3F"/>
</svg>
