<svg width="45" height="45" viewBox="0 0 45 45" fill="none" xmlns="http://www.w3.org/2000/svg">
<path fill-rule="evenodd" clip-rule="evenodd" d="M22.5 7.5C17.2744 7.5 12.6319 9.85688 9.32625 12.7744C7.66875 14.2388 6.3 15.8812 5.33625 17.52C4.3875 19.1269 3.75 20.8687 3.75 22.5C3.75 24.1313 4.3875 25.8731 5.33625 27.48C6.3 29.1169 7.66687 30.7612 9.32625 32.2256C12.6319 35.1431 17.2762 37.5 22.5 37.5C27.7256 37.5 32.3681 35.1431 35.6737 32.2256C37.3331 30.7612 38.7 29.1169 39.6637 27.48C40.6125 25.8731 41.25 24.1313 41.25 22.5C41.25 20.8687 40.6125 19.1269 39.6637 17.52C38.7 15.8831 37.3331 14.2388 35.6737 12.7744C32.3681 9.85688 27.7237 7.5 22.5 7.5ZM26.25 22.5C26.925 22.5 27.5569 22.3219 28.1044 22.0106C28.2043 23.1604 27.9481 24.313 27.3707 25.3122C26.7932 26.3115 25.9223 27.1089 24.8762 27.5963C23.8302 28.0837 22.6594 28.2376 21.5229 28.037C20.3864 27.8365 19.3391 27.2912 18.523 26.4751C17.707 25.659 17.1617 24.6117 16.9611 23.4752C16.7605 22.3387 16.9144 21.168 17.4018 20.1219C17.8893 19.0758 18.6867 18.2049 19.6859 17.6275C20.6851 17.05 21.8378 16.7938 22.9875 16.8938C22.6624 17.4644 22.4929 18.1105 22.4959 18.7673C22.4989 19.424 22.6744 20.0685 23.0047 20.6361C23.3351 21.2038 23.8087 21.6747 24.3782 22.0018C24.9478 22.3289 25.5932 22.5007 26.25 22.5Z" fill="#13B4FB"/>
</svg>
