<svg width="89" height="89" viewBox="0 0 89 89" fill="none" xmlns="http://www.w3.org/2000/svg">
<path d="M37.0807 14.8359C33.1467 14.8359 29.3738 16.3987 26.592 19.1805C23.8102 21.9623 22.2474 25.7352 22.2474 29.6693C22.2474 33.6033 23.8102 37.3762 26.592 40.158C29.3738 42.9398 33.1467 44.5026 37.0807 44.5026C41.0148 44.5026 44.7877 42.9398 47.5695 40.158C50.3513 37.3762 51.9141 33.6033 51.9141 29.6693C51.9141 25.7352 50.3513 21.9623 47.5695 19.1805C44.7877 16.3987 41.0148 14.8359 37.0807 14.8359ZM63.0391 44.5026C62.8125 44.4984 62.5916 44.5741 62.4153 44.7165C62.239 44.859 62.1184 45.0589 62.0749 45.2814L61.3703 50.1764C60.2578 50.6584 59.1824 51.2518 58.2182 51.9193L53.6199 50.0651C53.212 50.0651 52.7299 50.0651 52.4703 50.5472L48.762 56.9626C48.5395 57.3705 48.6136 57.8526 48.9845 58.1493L52.9153 61.1901C52.7676 62.4218 52.7676 63.6667 52.9153 64.8984L48.9845 67.9393C48.8178 68.0822 48.705 68.2777 48.6645 68.4935C48.624 68.7092 48.6584 68.9324 48.762 69.1259L52.4703 75.5414C52.6928 76.0234 53.1749 76.0234 53.6199 76.0234L58.2182 74.1693C59.1824 74.8368 60.2207 75.4672 61.3703 75.9122L62.0749 80.8072C62.1491 81.2522 62.5199 81.5859 63.0391 81.5859H70.4557C70.8636 81.5859 71.2716 81.2522 71.3457 80.8072L72.0503 75.9122C73.1628 75.4301 74.1641 74.8368 75.1653 74.1693L79.7266 76.0234C80.2086 76.0234 80.6907 76.0234 80.9503 75.5414L84.6586 69.1259C84.7622 68.9324 84.7966 68.7092 84.7561 68.4935C84.7157 68.2777 84.6028 68.0822 84.4361 67.9393L80.4682 64.8984C80.5424 64.268 80.6166 63.6747 80.6166 63.0443C80.6166 62.4139 80.5795 61.8205 80.4682 61.1901L84.3991 58.1493C84.5657 58.0064 84.6786 57.8108 84.7191 57.5951C84.7595 57.3793 84.7251 57.1562 84.6216 56.9626L80.9132 50.5472C80.6907 50.0651 80.2086 50.0651 79.7266 50.0651L75.1653 51.9193C74.1641 51.2518 73.1628 50.6214 72.0132 50.1764L71.3086 45.2814C71.2853 45.0701 71.1858 44.8746 71.0289 44.7313C70.8719 44.588 70.6682 44.5067 70.4557 44.5026H63.0391ZM37.0807 51.9193C20.6899 51.9193 7.41406 58.5572 7.41406 66.7526V74.1693H43.3107C41.6557 70.6938 40.7943 66.8937 40.7891 63.0443C40.7966 59.3186 41.606 55.6381 43.1624 52.253C41.197 52.0305 39.1574 51.9193 37.0807 51.9193ZM66.7474 57.4818C69.8253 57.4818 72.3099 59.9664 72.3099 63.0443C72.3099 66.1222 69.8253 68.6068 66.7474 68.6068C63.6324 68.6068 61.1849 66.1222 61.1849 63.0443C61.1849 59.9664 63.6695 57.4818 66.7474 57.4818Z" fill="white"/>
</svg>
