<svg width="22" height="22" viewBox="0 0 22 22" fill="none" xmlns="http://www.w3.org/2000/svg">
<path d="M15.5859 3.06417C16.9795 3.86872 18.1366 5.02591 18.9412 6.41943C19.7457 7.81295 20.1693 9.3937 20.1693 11.0028C20.1693 12.6119 19.7457 14.1926 18.9411 15.5861C18.1366 16.9797 16.9794 18.1368 15.5858 18.9414C14.1923 19.7459 12.6116 20.1694 11.0025 20.1694C9.39336 20.1694 7.81262 19.7458 6.41912 18.9412C5.02562 18.1366 3.86845 16.9794 3.06394 15.5859C2.25942 14.1924 1.8359 12.6116 1.83594 11.0025L1.84052 10.7055C1.89186 9.12241 2.35252 7.57964 3.17761 6.22758C4.00269 4.87553 5.16404 3.76034 6.54842 2.99073C7.93281 2.22113 9.49299 1.82337 11.0769 1.83624C12.6607 1.84911 14.2142 2.27217 15.5859 3.06417ZM11.0026 5.50251C10.7595 5.50251 10.5263 5.59908 10.3544 5.77099C10.1825 5.9429 10.0859 6.17606 10.0859 6.41917C9.35659 6.41917 8.65712 6.7089 8.14139 7.22463C7.62567 7.74035 7.33594 8.43983 7.33594 9.16917C7.33594 9.89852 7.62567 10.598 8.14139 11.1137C8.65712 11.6294 9.35659 11.9192 10.0859 11.9192V13.7525C9.93391 13.7609 9.78214 13.7321 9.64379 13.6685C9.50544 13.6049 9.38472 13.5085 9.2921 13.3877L9.22977 13.2951C9.10435 13.0928 8.90519 12.9473 8.6744 12.8892C8.4436 12.8311 8.19927 12.8651 7.99306 12.9839C7.78686 13.1027 7.63494 13.2971 7.56945 13.5259C7.50395 13.7547 7.53001 14 7.6421 14.2099C7.87607 14.6157 8.20981 14.955 8.61167 15.1956C9.01353 15.4363 9.47019 15.5703 9.93835 15.5849H10.0859C10.0857 15.8096 10.1681 16.0265 10.3173 16.1945C10.4665 16.3625 10.6722 16.4698 10.8954 16.4961L11.0026 16.5025C11.2457 16.5025 11.4789 16.4059 11.6508 16.234C11.8227 16.0621 11.9193 15.829 11.9193 15.5858L12.0806 15.5813C12.7952 15.54 13.4656 15.2216 13.9493 14.6939C14.4329 14.1662 14.6917 13.4707 14.6707 12.7551C14.6497 12.0396 14.3506 11.3605 13.8368 10.862C13.323 10.3636 12.6351 10.0851 11.9193 10.0858V8.25251C12.2474 8.24151 12.5344 8.38084 12.7131 8.61734L12.7754 8.70992C12.9009 8.91218 13.1 9.05774 13.3308 9.11581C13.5616 9.17389 13.8059 9.13992 14.0121 9.0211C14.2184 8.90228 14.3703 8.70793 14.4358 8.47913C14.5013 8.25033 14.4752 8.00502 14.3631 7.79509C14.1292 7.38914 13.7956 7.04967 13.3937 6.80887C12.9918 6.56807 12.5351 6.43393 12.0669 6.41917H11.9193C11.9193 6.17606 11.8227 5.9429 11.6508 5.77099C11.4789 5.59908 11.2457 5.50251 11.0026 5.50251ZM11.9193 11.9192C12.1624 11.9192 12.3955 12.0157 12.5675 12.1877C12.7394 12.3596 12.8359 12.5927 12.8359 12.8358C12.8359 13.079 12.7394 13.3121 12.5675 13.484C12.3955 13.6559 12.1624 13.7525 11.9193 13.7525V11.9192ZM10.0859 8.25251V10.0858C9.84282 10.0858 9.60966 9.98926 9.43776 9.81735C9.26585 9.64544 9.16927 9.41229 9.16927 9.16917C9.16927 8.92606 9.26585 8.6929 9.43776 8.52099C9.60966 8.34908 9.84282 8.25251 10.0859 8.25251Z" fill="#007E33"/>
</svg>
