<svg width="18" height="18" viewBox="0 0 18 18" fill="none" xmlns="http://www.w3.org/2000/svg">
<g clip-path="url(#clip0_670_13487)">
<path d="M17.9981 3.72942C17.3288 4.02301 16.6156 4.21762 15.8721 4.31211C16.637 3.85541 17.2208 3.13773 17.4953 2.2727C16.7821 2.69791 15.9947 2.99825 15.1555 3.16586C14.4783 2.44481 13.5132 1.99823 12.4603 1.99823C10.4175 1.99823 8.77294 3.6563 8.77294 5.68896C8.77294 5.98143 8.79768 6.26265 8.85843 6.53037C5.79088 6.38076 3.07655 4.91054 1.25312 2.67091C0.934775 3.22322 0.748045 3.85541 0.748045 4.53596C0.748045 5.81382 1.4061 6.94658 2.38699 7.60238C1.79418 7.59113 1.21262 7.41903 0.719923 7.14793C0.719923 7.15918 0.719923 7.1738 0.719923 7.18843C0.719923 8.98148 1.99891 10.4708 3.67611 10.8139C3.37576 10.896 3.04842 10.9354 2.70871 10.9354C2.47249 10.9354 2.23401 10.9219 2.01016 10.8724C2.48823 12.3336 3.84484 13.4079 5.45792 13.4428C4.20255 14.4248 2.6086 15.0165 0.883031 15.0165C0.580438 15.0165 0.290219 15.003 0 14.9658C1.63445 16.0199 3.57149 16.6217 5.66039 16.6217C12.4502 16.6217 16.1623 10.9973 16.1623 6.12204C16.1623 5.95893 16.1566 5.80145 16.1488 5.64509C16.8811 5.1254 17.4964 4.47634 17.9981 3.72942Z" fill="white"/>
</g>
<defs>
<clipPath id="clip0_670_13487">
<rect width="17.6622" height="17.6622" fill="white" transform="scale(1.01902)"/>
</clipPath>
</defs>
</svg>
