<svg width="22" height="22" viewBox="0 0 22 22" fill="none" xmlns="http://www.w3.org/2000/svg">
<g clip-path="url(#clip0_840_14807)">
<path d="M10.353 6.73021L12.4258 7.27639C12.4962 7.29285 12.5592 7.3321 12.605 7.38805C12.6508 7.444 12.6768 7.5135 12.679 7.58576C12.679 7.76146 12.5228 7.9066 12.3307 7.9066H10.971C10.8244 7.90617 10.6794 7.87765 10.5436 7.82257C10.3434 7.73854 10.1127 7.75764 9.9592 7.89896L9.23351 8.56736C9.19994 8.59674 9.17097 8.63099 9.14757 8.66896C9.11761 8.7181 9.09767 8.77269 9.0889 8.82958C9.08014 8.88646 9.08272 8.94452 9.09649 9.0004C9.11027 9.05629 9.13497 9.10889 9.16917 9.15519C9.20337 9.20148 9.2464 9.24055 9.29576 9.27014C9.69765 9.51133 10.1476 9.66127 10.6139 9.70938V10.3854C10.6139 10.7215 10.9129 10.9965 11.2773 10.9965H11.9407C12.3055 10.9965 12.6045 10.7215 12.6045 10.3854V9.71319C13.8623 9.57569 14.8137 8.52917 14.648 7.30694C14.5276 6.42847 13.7901 5.72951 12.8696 5.48507L10.7968 4.93889C10.7264 4.92243 10.6634 4.88317 10.6176 4.82723C10.5718 4.77128 10.5458 4.70178 10.5436 4.62951C10.5436 4.45382 10.6998 4.30868 10.8919 4.30868H12.2516C12.3987 4.30891 12.5443 4.33744 12.6806 4.39271C12.8803 4.47674 13.1114 4.45764 13.2649 4.31632L13.9906 3.64792C14.0231 3.61916 14.051 3.58569 14.0735 3.54861C14.1037 3.49948 14.1239 3.44485 14.1329 3.38788C14.1419 3.33091 14.1395 3.27272 14.1258 3.21668C14.1122 3.16064 14.0876 3.10785 14.0534 3.06138C14.0193 3.0149 13.9763 2.97565 13.9268 2.9459C13.5248 2.70472 13.0747 2.55477 12.6084 2.50667V1.82986C12.6084 1.49375 12.3097 1.21875 11.9449 1.21875H11.2815C10.9167 1.21875 10.6181 1.49375 10.6181 1.82986V2.50208C9.36184 2.63958 8.40851 3.68611 8.57427 4.90833C8.6942 5.78681 9.43403 6.48576 10.353 6.73021ZM21.5902 13.7503C21.1395 13.3417 20.4367 13.3684 19.9631 13.7503L16.4339 16.5729C16.0007 16.9205 15.4615 17.1092 14.9061 17.1076H10.3889C10.2268 17.1076 10.0714 17.0433 9.95677 16.9286C9.84216 16.814 9.77778 16.6586 9.77778 16.4965C9.77778 16.3345 9.84216 16.179 9.95677 16.0644C10.0714 15.9498 10.2268 15.8854 10.3889 15.8854H13.3791C13.9864 15.8854 14.5521 15.4691 14.6491 14.8694C14.6611 14.8006 14.6669 14.7308 14.6667 14.6609C14.6661 14.3371 14.537 14.0269 14.3079 13.7981C14.0787 13.5694 13.7682 13.441 13.4444 13.441H7.33333C6.3027 13.4412 5.30347 13.7958 4.50313 14.4451L2.72708 15.8854H0.611111C0.449034 15.8854 0.293596 15.9498 0.17899 16.0644C0.0643847 16.179 0 16.3345 0 16.4965L0 20.1632C0 20.3253 0.0643847 20.4807 0.17899 20.5953C0.293596 20.7099 0.449034 20.7743 0.611111 20.7743H14.2377C14.7929 20.7747 15.3318 20.5862 15.7655 20.2396L21.5417 15.6181C21.6806 15.5069 21.7936 15.3668 21.8728 15.2075C21.952 15.0481 21.9954 14.8734 22.0001 14.6956C22.0047 14.5177 21.9705 14.341 21.8997 14.1777C21.829 14.0144 21.7235 13.8686 21.5906 13.7503H21.5902Z" fill="#636363"/>
</g>
<defs>
<clipPath id="clip0_840_14807">
<rect width="22" height="22" fill="white"/>
</clipPath>
</defs>
</svg>
