<svg width="9" height="6" viewBox="0 0 9 6" fill="none" xmlns="http://www.w3.org/2000/svg">
<path fill-rule="evenodd" clip-rule="evenodd" d="M4.98679 4.98679C4.86001 5.11353 4.68808 5.18473 4.50881 5.18473C4.32955 5.18473 4.15762 5.11353 4.03084 4.98679L0.206392 1.16234C0.141822 1.09997 0.0903183 1.02537 0.0548869 0.942891C0.0194555 0.860409 0.00080557 0.771697 2.55254e-05 0.681931C-0.000754519 0.592165 0.016351 0.503142 0.0503437 0.420057C0.0843365 0.336972 0.134536 0.261489 0.198013 0.198012C0.261489 0.134535 0.336972 0.0843361 0.420057 0.0503434C0.503142 0.0163507 0.592165 -0.000754519 0.681931 2.55259e-05C0.771697 0.000805571 0.860409 0.0194555 0.942891 0.0548869C1.02537 0.0903183 1.09997 0.141822 1.16234 0.206392L4.50881 3.55287L7.85529 0.206392C7.9828 0.0832427 8.15357 0.0151001 8.33083 0.0166404C8.50809 0.0181808 8.67766 0.0892807 8.803 0.214627C8.92835 0.339973 8.99945 0.509537 9.00099 0.686797C9.00253 0.864057 8.93439 1.03483 8.81124 1.16234L4.98679 4.98679Z" fill="#13B4FB"/>
</svg>
