<svg width="90" height="102" viewBox="0 0 90 102" fill="none" xmlns="http://www.w3.org/2000/svg">
<g clip-path="url(#clip0_626_7832)">
<path d="M9.5625 6.375C4.2832 6.375 0 10.6582 0 15.9375V86.0625C0 91.3418 4.2832 95.625 9.5625 95.625H79.6875C84.9668 95.625 89.25 91.3418 89.25 86.0625V15.9375C89.25 10.6582 84.9668 6.375 79.6875 6.375H9.5625ZM44.6635 19.125C54.0367 19.125 61.7086 26.7969 61.7086 36.1702V52.2178C63.6183 55.2906 64.7244 58.9092 64.7244 62.7756C64.7242 73.8356 55.685 82.875 44.625 82.875C33.565 82.875 24.5258 73.8356 24.5258 62.7758C24.5258 51.7156 33.565 42.6766 44.625 42.6766C48.3663 42.6766 51.8754 43.7122 54.8824 45.5091V36.1702C54.8824 30.4858 50.3476 25.9512 44.6635 25.9512C38.9795 25.9512 34.4449 30.4858 34.4449 36.1702V38.498H27.6187V36.1702C27.6187 26.7967 35.2902 19.125 44.6635 19.125ZM44.625 49.5027C37.2541 49.5027 31.3521 55.4049 31.3521 62.7756C31.3521 70.1467 37.2541 76.0486 44.625 76.0486C51.9959 76.0486 57.898 70.1465 57.898 62.7756C57.898 55.4047 51.9959 49.5027 44.625 49.5027ZM44.6903 57.2049C47.8006 57.2049 50.3223 59.7262 50.3223 62.8364C50.3223 65.9466 47.8006 68.4683 44.6903 68.4683C41.5801 68.4683 39.059 65.9466 39.059 62.8364C39.059 59.7262 41.5801 57.2049 44.6903 57.2049Z" fill="white"/>
</g>
<defs>
<clipPath id="clip0_626_7832">
<rect width="89.25" height="102" fill="white"/>
</clipPath>
</defs>
</svg>
