<svg width="45" height="32" viewBox="0 0 45 32" fill="none" xmlns="http://www.w3.org/2000/svg">
<path d="M45 16.2508V28.7897C45 30.5216 43.6068 31.9244 41.8867 31.9244H19.7355C19.7044 31.9244 19.6888 31.8774 19.7278 31.8617L39.1703 24.7381C41.5909 23.8525 42.844 21.1488 41.9645 18.7115L39.9409 13.116H41.8867C43.6068 13.116 45 14.5267 45 16.2508ZM40.5013 19.2523L36.2438 7.46569C35.6523 5.83563 33.8699 4.99709 32.251 5.59269L30.7878 6.12559L33.7843 9.71486C34.586 10.6788 34.9674 11.8935 34.8584 13.1474C34.7495 14.4013 34.1657 15.5298 33.2084 16.337L14.692 31.9871C14.8632 31.9871 14.9021 31.9636 14.9021 31.9636L38.6333 23.2647C40.2522 22.677 41.085 20.8745 40.5013 19.2523ZM32.2043 15.1458L13.1198 31.2661C11.8044 32.379 9.83525 32.2066 8.73002 30.8821L0.728836 21.2742C-0.376387 19.9498 -0.205156 17.967 1.11021 16.8542L20.187 0.733852C21.5023 -0.378978 23.4715 -0.206568 24.5767 1.11786L32.5779 10.7258C33.6909 12.0581 33.5197 14.033 32.2043 15.1458ZM21.4323 11.9719C19.2219 9.32302 15.2913 8.97036 12.6606 11.196C10.0298 13.4217 9.67958 17.3793 11.89 20.0281C14.1005 22.677 18.031 23.0296 20.6618 20.804C23.2925 18.5783 23.6427 14.6286 21.4323 11.9719ZM19.4709 15.4514C19.79 15.8276 19.899 16.2586 19.8056 16.7445C19.7122 17.2304 19.4476 17.6928 18.9961 18.1316L19.5565 18.8056L18.9417 19.3228L18.3813 18.6567C17.9298 18.978 17.4862 19.1818 17.0581 19.2523C16.63 19.3228 16.202 19.2836 15.7739 19.1191L15.8984 18.0846C16.1786 18.2413 16.4821 18.304 16.8168 18.2727C17.1515 18.2413 17.4784 18.1316 17.7897 17.9435L16.7001 16.6348C16.3265 16.8464 15.9996 16.9953 15.7038 17.105C15.4081 17.2069 15.1201 17.2382 14.8321 17.1912C14.5363 17.1442 14.2717 16.9718 14.0304 16.6896C13.7113 16.3135 13.5868 15.8746 13.6568 15.3809C13.7269 14.8872 13.9837 14.4091 14.4429 13.9389L13.8748 13.2649L14.4896 12.7477L15.05 13.4217C15.4625 13.1239 15.8517 12.9436 16.2175 12.8888C16.5911 12.8339 16.9881 12.8574 17.4161 12.9671L17.3383 14.0016C17.0036 13.8762 16.7079 13.8214 16.4432 13.837C16.1786 13.8527 15.914 13.9546 15.6493 14.127L16.7623 15.4671C17.1359 15.2633 17.4706 15.1144 17.7664 15.0126C18.0621 14.9107 18.3579 14.8872 18.6537 14.942C18.9572 14.9812 19.2219 15.1536 19.4709 15.4514ZM16.0463 15.8511L15.0422 14.6442C14.8477 14.8637 14.7309 15.0831 14.7076 15.2868C14.6842 15.4906 14.7387 15.6787 14.8788 15.8511C15.0033 16.0078 15.1668 16.0784 15.3536 16.0627C15.5404 16.0549 15.7739 15.9843 16.0463 15.8511ZM18.6148 16.2586C18.4824 16.1019 18.319 16.0235 18.1244 16.0392C17.9298 16.0549 17.6963 16.1254 17.4239 16.2508L18.4046 17.4263C18.8249 16.9796 18.895 16.5956 18.6148 16.2586Z" fill="#13B4FB"/>
</svg>
