<svg width="40" height="29" viewBox="0 0 40 29" fill="none" xmlns="http://www.w3.org/2000/svg">
<path d="M31.8165 14.9402C31.7552 15.0018 31.6969 15.0655 31.6339 15.1245C30.1535 16.5412 28.2903 17.3203 26.3891 17.3203C24.3244 17.3203 22.4321 16.4219 20.9662 14.9358C18.1747 16.394 14.0479 20.2148 12.7796 23.4088C12.7796 23.4088 17.2178 29 25.9027 29C34.5877 29 40 23.4088 40 23.4088C38.7321 20.2169 34.6115 16.4027 31.8165 14.9402ZM26.3891 15.6324C27.9807 15.6324 29.4461 14.9695 30.6086 13.858C32.205 12.3317 33.2298 9.95911 33.2298 7.2952C33.2298 2.69055 30.168 0 26.3891 0C22.6116 0 19.5484 2.69055 19.5484 7.2952C19.5489 11.8994 22.6116 15.6324 26.3891 15.6324ZM13.9654 8.28347H8.71935V3.08883H5.24652V8.2839H0V11.723H5.24608V16.918H8.71891V11.723H13.965V8.28347H13.9654Z" fill="#13B4FB"/>
</svg>
